<svg width="336" height="20" viewBox="0 0 336 20" fill="none" xmlns="http://www.w3.org/2000/svg">
<path d="M328.5 11.5C330.709 11.5 332.5 9.70914 332.5 7.5C332.5 5.29086 330.709 3.5 328.5 3.5C326.291 3.5 324.5 5.29086 324.5 7.5C324.5 9.70914 326.291 11.5 328.5 11.5Z" stroke="white" stroke-linecap="round" stroke-linejoin="round"/>
<path d="M333.5 12.5L331.325 10.325" stroke="white" stroke-linecap="round" stroke-linejoin="round"/>
<path d="M9.75684 13H8.4375V4.12695H3.5293V13H2.2168V3.04688H9.75684V13ZM11.6162 9.2334C11.6162 8.50879 11.7575 7.8571 12.04 7.27832C12.3271 6.69954 12.7236 6.25293 13.2295 5.93848C13.7399 5.62402 14.321 5.4668 14.9727 5.4668C15.9798 5.4668 16.7933 5.81543 17.4131 6.5127C18.0374 7.20996 18.3496 8.13737 18.3496 9.29492V9.38379C18.3496 10.1038 18.2106 10.751 17.9326 11.3252C17.6592 11.8949 17.265 12.3392 16.75 12.6582C16.2396 12.9772 15.6517 13.1367 14.9863 13.1367C13.9837 13.1367 13.1702 12.7881 12.5459 12.0908C11.9261 11.3936 11.6162 10.4707 11.6162 9.32227V9.2334ZM12.8877 9.38379C12.8877 10.2041 13.0768 10.8626 13.4551 11.3594C13.8379 11.8561 14.3483 12.1045 14.9863 12.1045C15.6289 12.1045 16.1393 11.8538 16.5176 11.3525C16.8958 10.8467 17.085 10.1403 17.085 9.2334C17.085 8.4222 16.8913 7.76595 16.5039 7.26465C16.1211 6.75879 15.6107 6.50586 14.9727 6.50586C14.3483 6.50586 13.8447 6.75423 13.4619 7.25098C13.0791 7.74772 12.8877 8.45866 12.8877 9.38379ZM24.7207 5.60352H25.9854V13H24.7207V7.60645L21.3096 13H20.0449V5.60352H21.3096V11.0039L24.7207 5.60352ZM30.9824 12.1045C31.4336 12.1045 31.8278 11.9678 32.165 11.6943C32.5023 11.4209 32.6891 11.0791 32.7256 10.6689H33.9219C33.8991 11.0928 33.7533 11.4961 33.4844 11.8789C33.2155 12.2617 32.8555 12.5671 32.4043 12.7949C31.9577 13.0228 31.4837 13.1367 30.9824 13.1367C29.9753 13.1367 29.1732 12.8018 28.5762 12.1318C27.9837 11.4574 27.6875 10.5368 27.6875 9.37012V9.1582C27.6875 8.43815 27.8197 7.79785 28.084 7.2373C28.3483 6.67676 28.7266 6.24154 29.2188 5.93164C29.7155 5.62174 30.3011 5.4668 30.9756 5.4668C31.805 5.4668 32.4932 5.71517 33.04 6.21191C33.5915 6.70866 33.8854 7.35352 33.9219 8.14648H32.7256C32.6891 7.66797 32.5068 7.27604 32.1787 6.9707C31.8551 6.66081 31.4541 6.50586 30.9756 6.50586C30.333 6.50586 29.834 6.73828 29.4785 7.20312C29.1276 7.66341 28.9521 8.33105 28.9521 9.20605V9.44531C28.9521 10.2975 29.1276 10.9538 29.4785 11.4141C29.8294 11.8743 30.3307 12.1045 30.9824 12.1045ZM37.6475 9.84863H36.7246V13H35.4531V5.60352H36.7246V8.73438H37.5518L40.04 5.60352H41.5713L38.6455 9.1582L41.8174 13H40.2109L37.6475 9.84863ZM46.1035 9.43848C46.1035 8.20345 46.3428 7.23275 46.8213 6.52637C47.2998 5.81999 47.9561 5.4668 48.79 5.4668C49.1774 5.4668 49.5169 5.53288 49.8086 5.66504V2.5H51.0732V5.70605C51.3923 5.54655 51.766 5.4668 52.1943 5.4668C53.0329 5.4668 53.6914 5.81999 54.1699 6.52637C54.6484 7.23275 54.8877 8.2513 54.8877 9.58203C54.8877 10.6712 54.6484 11.5371 54.1699 12.1797C53.696 12.8223 53.042 13.1436 52.208 13.1436C51.766 13.1436 51.3877 13.0706 51.0732 12.9248V15.8438H49.8086V12.9453C49.5078 13.0775 49.1637 13.1436 48.7764 13.1436C47.9469 13.1436 47.293 12.8223 46.8145 12.1797C46.3405 11.5371 46.1035 10.6576 46.1035 9.54102V9.43848ZM53.623 9.43848C53.623 8.50879 53.4635 7.78874 53.1445 7.27832C52.8255 6.76335 52.3857 6.50586 51.8252 6.50586C51.5381 6.50586 51.2874 6.55143 51.0732 6.64258V11.9951C51.2783 12.0726 51.5335 12.1113 51.8389 12.1113C52.404 12.1113 52.8415 11.8926 53.1514 11.4551C53.4658 11.0176 53.623 10.3454 53.623 9.43848ZM47.3682 9.58203C47.3682 10.4115 47.5163 11.0404 47.8125 11.4688C48.1087 11.8971 48.5348 12.1113 49.0908 12.1113C49.3551 12.1113 49.5944 12.0703 49.8086 11.9883V6.62207C49.6172 6.5446 49.3825 6.50586 49.1045 6.50586C48.5485 6.50586 48.1201 6.75423 47.8193 7.25098C47.5186 7.74772 47.3682 8.52474 47.3682 9.58203ZM61.3203 5.60352H62.585V13H61.3203V7.60645L57.9092 13H56.6445V5.60352H57.9092V11.0039L61.3203 5.60352ZM70.6787 5.60352V13H69.4072V6.64941H66.8916L66.7412 9.41797C66.6592 10.6895 66.445 11.5986 66.0986 12.1455C65.7568 12.6924 65.2122 12.9772 64.4648 13H63.959V11.8857L64.3213 11.8584C64.7314 11.8128 65.0254 11.5758 65.2031 11.1475C65.3809 10.7191 65.4948 9.92611 65.5449 8.76855L65.6816 5.60352H70.6787ZM74.0898 8.15332H76.0107C76.8493 8.16243 77.5124 8.38118 78 8.80957C78.4876 9.23796 78.7314 9.81901 78.7314 10.5527C78.7314 11.291 78.4808 11.8835 77.9795 12.3301C77.4782 12.7767 76.8037 13 75.9561 13H72.8252V5.60352H74.0898V8.15332ZM74.0898 9.18555V11.9678H75.9697C76.4437 11.9678 76.8105 11.847 77.0703 11.6055C77.3301 11.3594 77.46 11.0244 77.46 10.6006C77.46 10.1904 77.3324 9.85547 77.0771 9.5957C76.8265 9.33138 76.4733 9.19466 76.0176 9.18555H74.0898ZM84.5693 11.3252L87.085 5.60352H88.6641V13H87.3994V7.62012L85.0068 13H84.1318L81.6914 7.50391V13H80.4268V5.60352H82.0674L84.5693 11.3252ZM90.3662 9.2334C90.3662 8.50879 90.5075 7.8571 90.79 7.27832C91.0771 6.69954 91.4736 6.25293 91.9795 5.93848C92.4899 5.62402 93.071 5.4668 93.7227 5.4668C94.7298 5.4668 95.5433 5.81543 96.1631 6.5127C96.7874 7.20996 97.0996 8.13737 97.0996 9.29492V9.38379C97.0996 10.1038 96.9606 10.751 96.6826 11.3252C96.4092 11.8949 96.015 12.3392 95.5 12.6582C94.9896 12.9772 94.4017 13.1367 93.7363 13.1367C92.7337 13.1367 91.9202 12.7881 91.2959 12.0908C90.6761 11.3936 90.3662 10.4707 90.3662 9.32227V9.2334ZM91.6377 9.38379C91.6377 10.2041 91.8268 10.8626 92.2051 11.3594C92.5879 11.8561 93.0983 12.1045 93.7363 12.1045C94.3789 12.1045 94.8893 11.8538 95.2676 11.3525C95.6458 10.8467 95.835 10.1403 95.835 9.2334C95.835 8.4222 95.6413 7.76595 95.2539 7.26465C94.8711 6.75879 94.3607 6.50586 93.7227 6.50586C93.0983 6.50586 92.5947 6.75423 92.2119 7.25098C91.8291 7.74772 91.6377 8.45866 91.6377 9.38379ZM98.8018 13V5.60352H101.687C102.671 5.60352 103.425 5.77669 103.949 6.12305C104.478 6.46484 104.742 6.96842 104.742 7.63379C104.742 7.97559 104.64 8.28548 104.435 8.56348C104.229 8.83691 103.926 9.04655 103.525 9.19238C103.972 9.2972 104.33 9.50228 104.599 9.80762C104.872 10.113 105.009 10.4775 105.009 10.9014C105.009 11.5804 104.758 12.0999 104.257 12.46C103.76 12.82 103.056 13 102.145 13H98.8018ZM100.066 9.75293V11.9814H102.158C102.687 11.9814 103.081 11.8835 103.341 11.6875C103.605 11.4915 103.737 11.2158 103.737 10.8604C103.737 10.1221 103.195 9.75293 102.11 9.75293H100.066ZM100.066 8.74121H101.7C102.885 8.74121 103.478 8.39486 103.478 7.70215C103.478 7.00944 102.917 6.65169 101.796 6.62891H100.066V8.74121Z" fill="white"/>
<line y1="19.75" x2="336" y2="19.75" stroke="white" stroke-width="0.5"/>
</svg>
